<?xml version="1.0" encoding="UTF-8"?>
<svg id="Layer_2" data-name="Layer 2" xmlns="http://www.w3.org/2000/svg" viewBox="0 0 1011.82 149.92">
  <defs>
    <style>
      .cls-1 {
        fill: #272727;
      }
    </style>
  </defs>
  <g id="Layer_1-2" data-name="Layer 1">
    <g>
      <g>
        <path class="cls-1" d="M225.82,74.96C225.82,31.45,258.71,0,301.8,0s75.98,31.45,75.98,74.96-32.88,74.96-75.98,74.96-75.98-31.46-75.98-74.96ZM349.8,74.96c0-27.57-19.2-50.04-48-50.04s-47.79,22.47-47.79,50.04,18.79,50.04,47.79,50.04,48-22.26,48-50.04Z"/>
        <path class="cls-1" d="M586.95,148.08h-21.45l-88.03-111.11v110.5h-26.55V2.45h31.86l77.82,99.47V2.45h26.35v145.63Z"/>
        <path class="cls-1" d="M667.85,2.45h58.62c46.36,0,77.62,26.76,77.62,72.51s-31.05,72.51-77.62,72.51h-58.62V2.45ZM695.22,26.55v96.82h30.84c30.23,0,50.04-18.38,50.04-48.41s-19.81-48.41-50.04-48.41h-30.84Z"/>
        <path class="cls-1" d="M969.34,117.65h-73.12l-13.28,29.82h-27.57L920.52,1.84h25.94l65.36,145.63h-29.21l-13.28-29.82ZM958.92,93.96l-26.14-58.62-26.14,58.62h52.29Z"/>
      </g>
      <g>
        <circle class="cls-1" cx="15.34" cy="20.86" r="15.34"/>
        <circle class="cls-1" cx="72.67" cy="20.86" r="15.34"/>
        <circle class="cls-1" cx="15.34" cy="74.96" r="15.34"/>
        <circle class="cls-1" cx="130.01" cy="74.96" r="15.34"/>
        <circle class="cls-1" cx="72.67" cy="129.06" r="15.34"/>
        <circle class="cls-1" cx="130.01" cy="129.06" r="15.34"/>
        <path class="cls-1" d="M128,5.64c-6.43.81-12.55,7.07-13.25,13.51-.24,2.26,0,4.43.65,6.42.85,2.63.12,5.51-1.89,7.4l-27.79,26.23c-1.99,1.88-4.89,2.49-7.43,1.48-2.3-.91-4.86-1.28-7.56-.95-6.98.87-12.57,6.55-13.31,13.54-.24,2.25,0,4.41.65,6.4.85,2.63.12,5.51-1.89,7.41l-27.79,26.23c-1.99,1.88-4.89,2.49-7.43,1.48-2.3-.91-4.87-1.28-7.56-.95-6.35.79-12.49,6.91-13.28,13.26-1.24,10.02,7.2,18.45,17.23,17.18,6.43-.81,12.55-7.07,13.25-13.51.24-2.26,0-4.43-.65-6.42-.85-2.63-.12-5.51,1.89-7.4l27.79-26.23c1.99-1.88,4.89-2.49,7.43-1.48,2.3.91,4.86,1.28,7.56.95,6.98-.87,12.57-6.55,13.31-13.54.24-2.25,0-4.41-.65-6.4-.85-2.63-.12-5.51,1.89-7.41l27.79-26.23c1.99-1.88,4.89-2.49,7.43-1.48,2.3.91,4.87,1.28,7.56.95,6.35-.79,12.49-6.91,13.28-13.26,1.24-10.02-7.2-18.45-17.22-17.18Z"/>
      </g>
    </g>
  </g>
</svg>